<?xml version="1.0" encoding="UTF-8"?>
<svg width="37px" height="37px" viewBox="0 0 37 37" version="1.1" xmlns="http://www.w3.org/2000/svg" xmlns:xlink="http://www.w3.org/1999/xlink">
    <!-- Generator: Sketch 42 (36781) - http://www.bohemiancoding.com/sketch -->
    <title>元素/多选/已勾选</title>
    <desc>Created with Sketch.</desc>
    <defs></defs>
    <g id="Page-1" stroke="none" stroke-width="1" fill="none" fill-rule="evenodd">
        <g id="支付" transform="translate(-659.000000, -705.000000)">
            <g id="Group-6" transform="translate(18.000000, 679.000000)">
                <g id="小图标控件" transform="translate(641.000000, 26.000000)">
                    <g id="元素/多选/已勾选">
                        <path d="M36.9834445,18.6333654 C36.9834445,8.24049224 28.704632,0 18.2634294,0 C8.27881255,0 0,8.24049224 0,18.6333654 C0,28.5717663 8.27881255,36.8122585 18.2634294,36.8122585 C28.704632,36.8122585 36.9834445,28.5717663 36.9834445,18.6333654 Z" id="Fill-" fill="#4FAFC8"></path>
                        <path d="M10.3503747,20.407393 C9.96238382,20.0077004 9.9178156,19.3180557 10.2453218,18.874487 L10.1202074,19.0439397 C10.4501791,18.5970318 11.079821,18.5110213 11.5178934,18.8452246 L15.1862681,21.6438094 C15.6282171,21.98097 16.3300009,21.9694428 16.7597421,21.6130908 L27.5745317,12.6451992 C28.0015885,12.2910732 28.662981,12.3138417 29.0554134,12.6996127 L28.7099782,12.3600412 C29.1007899,12.7442189 29.0988364,13.3679207 28.7049522,13.7537673 L16.6987469,25.5149742 C16.3051594,25.9005301 15.6803873,25.8981585 15.2835742,25.4893775 L10.3503747,20.407393 Z" id="Fill-" fill="#FFFFFF"></path>
                    </g>
                </g>
            </g>
        </g>
    </g>
</svg>